<?xml version="1.0" standalone="no"?>
<!DOCTYPE svg PUBLIC "-//W3C//DTD SVG 20010904//EN"
 "http://www.w3.org/TR/2001/REC-SVG-20010904/DTD/svg10.dtd">
<svg version="1.0" xmlns="http://www.w3.org/2000/svg"
 width="87.000000pt" height="111.000000pt" viewBox="0 0 87.000000 111.000000"
 preserveAspectRatio="xMidYMid meet">
<metadata>
Created by potrace 1.15, written by Peter Selinger 2001-2017
</metadata>
<g transform="translate(0.000000,111.000000) scale(0.100000,-0.100000)"
fill="#000000" stroke="none">
<path d="M35 1079 l-35 -31 0 -524 0 -524 406 0 406 0 29 29 29 29 0 526 0
526 -400 0 -399 0 -36 -31z m330 -19 c28 -5 77 -12 109 -15 33 -4 63 -8 68
-11 4 -3 8 2 8 11 0 25 88 16 116 -12 13 -13 18 -23 11 -23 -7 0 11 -11 40
-24 65 -31 113 -66 113 -83 0 -15 -10 -16 -44 -3 -24 9 -25 8 -16 -15 13 -33
41 -77 59 -91 13 -10 13 -19 -1 -70 -16 -56 -15 -65 3 -163 10 -58 17 -106 15
-109 -3 -2 -10 8 -18 21 l-13 25 -39 -19 c-22 -10 -41 -17 -43 -15 -2 2 8 34
22 72 l26 70 -50 119 c-37 91 -55 122 -73 128 -12 5 -33 14 -44 19 -31 14 -55
3 -82 -36 -81 -119 -92 -295 -30 -475 10 -30 18 -56 18 -58 0 -2 -82 -2 -182
1 l-183 4 4 79 c4 101 41 245 86 339 20 41 66 112 103 157 36 45 58 75 47 67
-17 -14 -18 -13 -12 3 5 13 -11 29 -76 73 l-82 56 45 -6 c25 -4 68 -11 95 -16z
m-153 -846 c10 -21 9 -31 -7 -60 -17 -33 -18 -35 0 -54 18 -20 17 -20 -12 -20
-20 0 -36 8 -46 22 l-16 23 0 -22 c-1 -16 -7 -23 -21 -23 -18 0 -20 7 -20 80
l0 80 55 0 c50 0 57 -3 67 -26z m168 7 c5 -11 10 -47 10 -80 0 -58 -1 -61 -25
-61 -16 0 -25 6 -25 15 0 8 -9 15 -20 15 -11 0 -20 -7 -20 -15 0 -8 -9 -15
-20 -15 -18 0 -20 7 -20 68 0 40 5 73 12 80 7 7 31 12 55 12 32 0 45 -5 53
-19z m390 -1 c0 -16 -7 -20 -36 -20 -21 0 -33 -4 -29 -10 3 -5 19 -10 35 -10
29 0 40 -15 40 -54 0 -34 -19 -46 -72 -46 -41 0 -48 3 -48 20 0 17 7 20 40 20
22 0 40 5 40 10 0 6 -16 10 -35 10 -44 0 -65 34 -47 75 10 22 18 25 62 25 43
0 50 -3 50 -20z"/>
</g>
</svg>
